<mxfile host="app.diagrams.net" modified="2024-04-23T11:29:34.205Z" agent="Mozilla/5.0 (Macintosh; Intel Mac OS X 10_15_7) AppleWebKit/537.36 (KHTML, like Gecko) Chrome/122.0.0.0 Safari/537.36" version="24.2.8" etag="8IGoJ_ERbRUM8CzWwWiW" type="github">
  <diagram name="Page-1" id="9utu5QOyMFW3R1rW-97n">
    <mxGraphModel>
      <root>
        <mxCell id="0" />
        <mxCell id="1" parent="0" />
      </root>
    </mxGraphModel>
  </diagram>
</mxfile>
